<svg xmlns="http://www.w3.org/2000/svg" viewBox="0 0 128 128" fill="#fff0" style="enable-background:new 0 0 128 128" xml:space="preserve"><path d="M128 28.27v78.16H0V28.27h8.84v4.8H4.8v68.56h118.4V33.07h-4.04v-4.8z"/><path style="fill:#beaa8c" d="M89.85 22.06c-15.27 1.68-24.22 7.07-24.22 7.07v72.5h2.44c4.18-1.39 13.22-4.12 22.88-5.18 13.24-1.46 25.64.44 25.64.44V23.53s-11.48-3.15-26.74-1.47zm-51.81 0c-15.27-1.68-26.75 1.47-26.75 1.47v73.36s12.4-1.9 25.64-.44c9.66 1.06 18.7 3.79 22.88 5.18h2.44v-72.5s-8.94-5.39-24.21-7.07z"/></svg>